<svg xmlns="http://www.w3.org/2000/svg" xmlns:xlink="http://www.w3.org/1999/xlink" width="500" zoomAndPan="magnify" viewBox="0 0 375 374.999991" height="500" preserveAspectRatio="xMidYMid meet" version="1.0"><defs><clipPath id="07d1991f63"><path d="M 37.597656 132 L 207.632812 132 L 207.632812 241.34375 L 37.597656 241.34375 Z M 37.597656 132 " clip-rule="nonzero"/></clipPath></defs><rect x="-37.5" width="450" fill="#ffffff" y="-37.499999" height="449.999989" fill-opacity="1"/><rect x="-37.5" width="450" fill="#ffffff" y="-37.499999" height="449.999989" fill-opacity="1"/><path stroke-linecap="butt" transform="matrix(1.156702, 0, 0, 1.156702, 14.972252, 82.246651)" fill="none" stroke-linejoin="miter" d="M 193.68809 118.355243 C 190.31441 118.355243 187.015025 117.700094 183.796689 116.39655 C 180.645895 115.089629 177.957757 113.245756 175.728899 110.858176 C 173.344697 108.473974 171.531217 105.782459 170.291837 102.790387 C 169.596163 101.26058 169.089605 99.663232 168.775539 97.994965 C 168.481735 96.353715 168.336521 94.688826 168.336521 93.000298 L 168.336521 41.381978 L 170.528231 41.246896 L 192.438579 40.33509 L 180.554714 28.484996 L 194.599895 14.406045 L 196.355965 12.788434 L 212.120068 28.484996 L 200.273351 40.33509 L 224.44295 41.381978 L 224.44295 67.645352 L 222.149928 67.645352 L 222.149928 43.577065 L 197.132688 42.530177 L 196.794982 93.675709 C 196.794982 93.922234 196.649769 94.047185 196.355965 94.047185 C 196.10944 94.047185 195.984489 93.922234 195.984489 93.675709 L 195.646783 42.530177 L 170.629543 43.577065 L 170.629543 93.000298 C 170.629543 97.23175 171.6663 101.091727 173.736436 104.580227 C 175.830211 108.068727 178.61966 110.848045 182.108161 112.918181 C 185.596661 115.011957 189.456637 116.058844 193.68809 116.058844 L 199.091381 116.058844 C 203.322834 116.058844 207.18281 115.011957 210.671311 112.918181 C 214.180073 110.848045 216.972899 108.068727 219.043035 104.580227 C 221.113172 101.091727 222.149928 97.23175 222.149928 93.000298 L 224.44295 93.000298 C 224.44295 96.377355 223.757407 99.639592 222.386322 102.790387 C 221.146942 105.782459 219.346971 108.473974 216.983031 110.858176 C 214.754173 113.245756 212.066035 115.089629 208.915241 116.39655 C 205.673266 117.700094 202.39752 118.355243 199.091381 118.355243 Z M 196.355965 41.044272 L 208.915241 28.484996 L 196.355965 16.027032 L 183.898001 28.484996 Z M 259.192869 118.689572 C 255.815812 118.689572 252.506296 118.0378 249.264321 116.734256 C 246.204707 115.427335 243.516569 113.627363 241.196531 111.330964 C 238.900132 109.014303 237.10016 106.322788 235.796616 103.263175 C 234.715958 100.561529 234.064186 97.907162 233.837923 95.296697 L 230.359554 95.296697 L 230.359554 93.000298 L 236.134322 93.000298 L 236.134322 93.338003 C 236.134322 97.569456 237.167702 101.429432 239.237838 104.917933 C 241.311351 108.426695 244.090669 111.219521 247.579169 113.289657 C 251.087932 115.359794 254.961416 116.39655 259.192869 116.39655 L 264.592783 116.39655 C 268.824236 116.39655 272.684212 115.359794 276.172713 113.289657 C 279.684852 111.219521 282.474301 108.426695 284.544437 104.917933 C 286.614574 101.429432 287.65133 97.569456 287.65133 93.338003 L 287.65133 67.645352 C 287.65133 63.731343 286.729394 59.99294 284.882143 56.436899 C 283.03827 52.860595 280.573018 49.956326 277.489765 47.727468 C 274.426774 45.498611 271.019323 44.387559 267.260659 44.387559 C 266.875674 44.387559 266.450165 44.407821 265.977377 44.4551 C 265.528228 44.475362 265.065571 44.522641 264.592783 44.590182 L 236.134322 49.213374 L 236.134322 67.645352 L 230.359554 67.645352 L 230.359554 65.35233 L 233.837923 65.35233 L 233.837923 47.25468 L 235.661534 46.916975 L 264.153766 42.293783 C 264.670456 42.226242 265.177014 42.168832 265.673442 42.12493 C 266.190131 42.077652 266.720329 42.057389 267.260659 42.057389 C 270.411453 42.057389 273.437296 42.834112 276.341565 44.387559 C 279.043211 45.758644 281.427414 47.673436 283.49755 50.125179 C 285.500145 52.509381 287.07723 55.244798 288.22543 58.328051 C 289.373629 61.391042 289.947729 64.494558 289.947729 67.645352 L 289.947729 93.338003 C 289.947729 96.802864 289.258809 100.11238 287.887724 103.263175 C 286.580803 106.322788 284.7707 109.014303 282.450662 111.330964 C 280.15764 113.627363 277.466126 115.427335 274.382872 116.734256 C 271.164537 118.0378 267.902299 118.689572 264.592783 118.689572 Z M 261.587202 92.324886 L 261.249497 92.088492 C 261.249497 92.088492 261.229234 92.064853 261.181956 92.020951 C 261.161693 91.977049 261.148185 91.919639 261.148185 91.852098 L 261.485891 70.313227 C 261.485891 70.066702 261.644612 69.941751 261.958679 69.941751 C 262.184942 69.941751 262.296384 70.066702 262.296384 70.313227 L 262.63409 91.852098 C 262.63409 92.01082 262.60032 92.122263 262.532778 92.189804 C 262.444975 92.189804 262.377434 92.213443 262.330155 92.257345 C 262.309893 92.301247 262.296384 92.324886 262.296384 92.324886 Z M 261.587202 92.324886 " stroke="#014976" stroke-width="5.18565" stroke-opacity="1" stroke-miterlimit="4"/><path stroke-linecap="butt" transform="matrix(1.156702, 0, 0, 1.156702, 14.972252, 82.246651)" fill="none" stroke-linejoin="miter" d="M 2.563536 186.294881 L 2.462224 184.099793 L 1.178942 159.221013 L 1.178942 156.789532 L 4.522229 156.789532 L 6.244528 132.717868 L 6.379611 130.66124 L 31.832491 130.66124 C 35.591156 130.66124 38.968213 131.265733 41.960285 132.481474 C 45.11108 133.720854 47.846496 135.530956 50.163158 137.918536 C 51.311357 139.134276 52.348114 140.437821 53.27005 141.832545 C 54.191987 143.207007 54.924808 144.659142 55.465137 146.188949 C 56.768681 149.430924 57.423831 152.851883 57.423831 156.451826 L 57.423831 158.646913 L 55.127432 158.646913 L 55.127432 156.451826 C 55.127432 151.926569 54.124446 147.901117 52.121851 144.365338 C 50.119256 140.832936 47.363577 138.053618 43.851438 136.027384 C 40.362937 133.980887 36.357748 132.954262 31.832491 132.954262 L 8.571321 132.954262 L 6.717316 157.971502 L 32.642985 158.309207 L 32.744296 158.309207 C 33.058363 158.309207 33.217084 158.42065 33.217084 158.646913 C 33.217084 158.960979 33.058363 159.119701 32.744296 159.119701 L 3.610424 159.119701 L 4.758623 183.998482 L 57.423831 183.998482 L 57.423831 186.294881 Z M 103.79758 207.631128 L 69.091563 204.291219 L 67.031558 204.156136 L 67.031558 186.294881 L 63.320172 186.294881 L 63.320172 183.998482 L 89.245841 183.998482 C 92.78162 183.998482 95.773692 182.77261 98.225436 180.320866 C 100.704196 177.865746 101.940199 174.873673 101.940199 171.341271 L 101.940199 133.866067 L 76.585253 132.481474 L 76.585253 158.646913 L 63.320172 158.646913 L 63.320172 156.350514 L 74.292231 156.350514 L 74.292231 130.188452 L 76.686565 130.188452 L 104.236598 131.67098 L 104.236598 171.341271 C 104.236598 175.481543 102.774332 179.013945 99.846423 181.941854 C 99.397275 182.391003 99.059569 182.694938 98.833306 182.853659 L 103.79758 182.853659 Z M 101.467411 205.098335 L 101.467411 185.146681 L 69.327957 185.146681 L 69.327957 201.961049 Z M 115.114099 186.294881 L 115.012787 184.099793 L 113.729506 159.221013 L 113.729506 156.789532 L 117.072792 156.789532 L 118.791715 132.717868 L 118.926797 130.66124 L 144.383054 130.66124 C 148.141719 130.66124 151.518776 131.265733 154.510849 132.481474 C 157.661643 133.720854 160.39706 135.530956 162.713721 137.918536 C 163.86192 139.134276 164.898677 140.437821 165.820614 141.832545 C 166.74255 143.207007 167.475372 144.659142 168.015701 146.188949 C 169.319245 149.430924 169.974394 152.851883 169.974394 156.451826 L 169.974394 158.646913 L 167.677995 158.646913 L 167.677995 156.451826 C 167.677995 151.926569 166.675009 147.901117 164.672414 144.365338 C 162.669819 140.832936 159.91414 138.053618 156.402001 136.027384 C 152.913501 133.980887 148.908311 132.954262 144.383054 132.954262 L 121.121884 132.954262 L 119.264503 157.971502 L 145.193548 158.309207 L 145.29486 158.309207 C 145.608926 158.309207 145.767648 158.42065 145.767648 158.646913 C 145.767648 158.960979 145.608926 159.119701 145.29486 159.119701 L 116.160987 159.119701 L 117.309186 183.998482 L 169.974394 183.998482 L 169.974394 186.294881 Z M 222.794946 213.169502 L 208.614683 199.090551 L 206.895761 197.469563 L 208.614683 195.882346 L 218.070443 186.294881 L 175.870736 186.294881 L 175.870736 183.998482 L 274.987366 183.998482 C 278.523144 183.998482 281.515217 182.77261 283.966961 180.320866 C 286.422081 177.865746 287.647953 174.873673 287.647953 171.341271 L 287.647953 145.277144 L 262.42809 136.162466 C 260.425495 135.395874 258.075063 134.733971 255.373417 134.170002 C 252.695411 133.585771 250.007273 133.123115 247.305627 132.785409 C 244.627621 132.427441 242.219779 132.24508 240.082102 132.24508 L 187.281812 132.24508 L 183.938526 157.498714 L 261.955302 157.498714 L 262.293007 157.971502 L 262.293007 158.309207 L 261.955302 158.646913 L 175.870736 158.646913 L 175.870736 156.350514 L 181.777209 156.350514 L 184.985413 131.907374 L 185.221807 129.952058 L 240.082102 129.952058 C 241.67945 129.952058 243.479422 130.05337 245.482016 130.255993 C 247.484611 130.434977 249.554748 130.715273 251.692425 131.09688 C 253.921283 131.481865 256.015058 131.931013 257.973751 132.447703 C 259.932444 132.944131 261.685137 133.46082 263.238583 134.001149 L 289.978123 143.656156 L 289.978123 171.341271 C 289.978123 175.481543 288.515857 179.013945 285.587948 181.941854 C 282.663417 184.842746 279.127638 186.294881 274.987366 186.294881 L 227.387744 186.294881 L 236.840127 195.882346 L 238.461115 197.469563 Z M 222.794946 209.927527 L 235.21914 197.469563 L 222.794946 184.910287 L 210.23567 197.469563 Z M 222.794946 209.927527 " stroke="#014976" stroke-width="5.18565" stroke-opacity="1" stroke-miterlimit="4"/><path fill="#faae42" d="M 94.515625 146.578125 C 93.417969 154.386719 92.320312 162.199219 91.222656 170.007812 C 91.101562 170.863281 90.976562 171.472656 90.488281 172.082031 C 88.292969 175.375 85.976562 178.550781 83.777344 181.722656 C 78.898438 188.554688 73.894531 195.511719 69.011719 202.464844 C 68.035156 203.808594 67.304688 205.152344 66.9375 206.738281 C 65.960938 211.007812 69.5 215.28125 73.894531 215.035156 C 76.824219 214.914062 78.773438 213.328125 80.484375 211.253906 C 89.269531 200.148438 97.933594 189.164062 106.71875 178.0625 C 107.816406 176.71875 108.550781 175.132812 108.917969 173.425781 C 110.378906 166.46875 111.96875 159.636719 113.429688 152.558594 C 112.699219 152.433594 104.765625 151.582031 102.570312 151.09375 C 99.152344 150.484375 96.46875 148.894531 94.515625 146.578125 Z M 94.515625 146.578125 " fill-opacity="1" fill-rule="nonzero"/><path fill="#faae42" d="M 142.382812 58.757812 C 143.195312 59.070312 143.96875 59.46875 144.699219 59.953125 C 145.429688 60.441406 146.105469 61 146.726562 61.636719 C 147.34375 62.273438 147.894531 62.972656 148.378906 63.738281 C 148.863281 64.503906 149.269531 65.316406 149.597656 66.175781 C 149.925781 67.039062 150.171875 67.933594 150.335938 68.859375 C 150.5 69.789062 150.574219 70.730469 150.5625 71.683594 C 150.550781 72.640625 150.457031 73.59375 150.273438 74.542969 C 150.089844 75.488281 149.824219 76.417969 149.472656 77.320312 C 149.125 78.226562 148.699219 79.089844 148.199219 79.914062 C 147.695312 80.742188 147.128906 81.511719 146.492188 82.226562 C 145.859375 82.941406 145.171875 83.589844 144.429688 84.167969 C 143.683594 84.742188 142.902344 85.242188 142.078125 85.65625 C 141.257812 86.074219 140.410156 86.402344 139.539062 86.644531 C 138.667969 86.886719 137.789062 87.035156 136.902344 87.089844 C 136.015625 87.144531 135.136719 87.109375 134.269531 86.976562 C 133.402344 86.84375 132.5625 86.621094 131.746094 86.304688 C 130.933594 85.992188 130.160156 85.589844 129.429688 85.105469 C 128.699219 84.621094 128.023438 84.0625 127.402344 83.425781 C 126.785156 82.789062 126.234375 82.085938 125.75 81.324219 C 125.265625 80.558594 124.859375 79.746094 124.53125 78.882812 C 124.199219 78.023438 123.957031 77.128906 123.792969 76.203125 C 123.628906 75.273438 123.554688 74.332031 123.566406 73.378906 C 123.574219 72.421875 123.671875 71.46875 123.855469 70.519531 C 124.039062 69.570312 124.304688 68.644531 124.65625 67.742188 C 125.003906 66.835938 125.429688 65.972656 125.929688 65.144531 C 126.433594 64.320312 127 63.550781 127.636719 62.835938 C 128.269531 62.121094 128.957031 61.472656 129.699219 60.894531 C 130.445312 60.316406 131.226562 59.820312 132.050781 59.402344 C 132.871094 58.988281 133.71875 58.65625 134.589844 58.417969 C 135.460938 58.175781 136.339844 58.027344 137.226562 57.972656 C 138.113281 57.917969 138.992188 57.953125 139.859375 58.085938 C 140.726562 58.21875 141.566406 58.441406 142.382812 58.757812 Z M 142.382812 58.757812 " fill-opacity="1" fill-rule="nonzero"/><path fill="#faae42" d="M 62.667969 128.640625 C 64.253906 128.640625 65.472656 128.03125 66.574219 127.296875 C 67.914062 126.441406 83.535156 110.089844 85.363281 109.238281 C 87.195312 108.382812 104.765625 104.84375 104.765625 104.84375 L 96.226562 131.082031 C 95.492188 133.15625 95.25 135.230469 95.371094 137.425781 C 95.738281 142.0625 97.933594 145.84375 103.425781 147.066406 C 106.109375 147.675781 126.121094 149.871094 133.6875 150.726562 C 131.613281 155.363281 121.972656 175.742188 119.410156 181.601562 C 117.457031 186.238281 120.386719 191.117188 124.902344 191.484375 C 128.5625 191.726562 131.125 189.777344 132.710938 186.726562 C 139.546875 173.914062 146.378906 160.976562 153.210938 148.164062 C 154.554688 145.722656 154.796875 143.039062 153.945312 140.230469 C 152.480469 135.59375 148.574219 134.496094 144.425781 133.765625 C 137.472656 132.421875 130.515625 131.082031 123.4375 129.738281 C 123.4375 129.738281 133.6875 111.921875 134.90625 109.847656 C 134.90625 109.847656 144.914062 116.070312 148.820312 118.390625 C 152.234375 120.339844 155.898438 120.097656 158.703125 117.414062 C 164.074219 112.289062 177.617188 99.351562 178.714844 97.765625 C 181.402344 93.863281 178.714844 88.859375 174.445312 88.738281 C 171.761719 88.738281 169.929688 90.199219 168.101562 91.664062 C 163.21875 95.691406 158.460938 99.839844 153.578125 103.867188 C 153.457031 103.988281 139.058594 93.25 138.203125 92.519531 C 137.472656 91.910156 137.105469 91.664062 136.128906 91.664062 C 135.394531 91.664062 134.664062 91.664062 133.933594 91.542969 C 132.46875 91.421875 131.125 91.054688 129.78125 90.566406 C 127.707031 89.835938 125.878906 88.613281 124.292969 87.148438 C 123.679688 86.539062 123.070312 85.441406 122.339844 85.074219 C 121.605469 84.710938 120.753906 84.953125 120.019531 85.074219 C 118.554688 85.320312 117.214844 85.5625 115.75 85.929688 C 110.746094 87.027344 83.167969 94.714844 81.582031 95.324219 C 79.019531 96.300781 76.699219 97.765625 74.75 99.964844 C 69.257812 106.550781 63.523438 112.898438 58.03125 119.367188 C 56.566406 121.195312 56.320312 123.390625 57.542969 125.46875 C 58.882812 127.296875 60.226562 128.761719 62.667969 128.640625 Z M 62.667969 128.640625 " fill-opacity="1" fill-rule="nonzero"/><g clip-path="url(#07d1991f63)"><path fill="#faae42" d="M 192.382812 141.574219 L 176.765625 150.359375 L 184.085938 155.851562 C 150.039062 197.464844 112.578125 215.523438 86.828125 223.210938 C 58.394531 231.753906 37.894531 230.046875 37.652344 230.046875 L 43.386719 235.171875 L 38.503906 241.027344 C 39.117188 241.027344 39.847656 241.027344 40.703125 241.148438 C 48.390625 241.273438 66.449219 240.785156 89.511719 233.949219 C 116.847656 225.773438 156.75 206.738281 192.871094 162.5625 L 199.949219 167.8125 L 203.855469 150.359375 L 207.757812 132.910156 Z M 192.382812 141.574219 " fill-opacity="1" fill-rule="nonzero"/></g></svg>